<svg width="28" xmlns="http://www.w3.org/2000/svg" height="28" id="screenshot-31cb41d8-f1e7-80f9-8007-306be6aa78e1" viewBox="0 0 28 28" xmlns:xlink="http://www.w3.org/1999/xlink" fill="none" version="1.1"><g id="shape-31cb41d8-f1e7-80f9-8007-306be6aa78e1" width="128" height="128" rx="0" ry="0" style="fill: rgb(0, 0, 0);"><g id="shape-31cb41d8-f1e7-80f9-8007-306be6aae116" style="display: none;"><g class="fills" id="fills-31cb41d8-f1e7-80f9-8007-306be6aae116"><rect width="28" height="27.99999999999997" x="0" transform="matrix(1.000000, 0.000000, 0.000000, 1.000000, 0.000000, 0.000000)" style="fill: none;" ry="0" fill="none" rx="0" y="0"/></g></g><g id="shape-31cb41d8-f1e7-80f9-8007-306be6ab1413"><g class="fills" id="fills-31cb41d8-f1e7-80f9-8007-306be6ab1413"><path d="M22.8609619140625,20.366958618164062C19.38580322265625,13.95947265625,14.3597412109375,4.332763671875,13.896728515625,2.2564697265625C13.896728515625,2.2564697265625,12.88714599609375,4.801177978515625,11.0869140625,8.7215576171875C11.74237060546875,9.7373046875,13.3560791015625,10.83135986328125,13.9466552734375,11.533554077148438C11.90753173828125,10.89013671875,10.666015625,9.610076904296875,10.666015625,9.610076904296875C8.5711669921875,14.1231689453125,5.61212158203125,20.072280883789062,2.2564697265625,25.565673828125C3.85791015625,24.747589111328125,8.27056884765625,22.0443115234375,11.437744140625,21.688629150390625C11.3310546875,20.1947021484375,11.3665771484375,15.961944580078125,13.82208251953125,15.89080810546875C16.27752685546875,15.819656372070312,16.8824462890625,19.41217041015625,16.526611328125,21.72418212890625C18.80413818359375,22.222152709960938,23.9285888671875,24.463027954101562,25.7435302734375,25.7435302734375L23.8040771484375,22.079879760742188C23.8040771484375,22.079879760742188,21.11724853515625,20.248046875,19.818359375,19.305465698242188C21.490966796875,19.341033935546875,22.44580078125,20.138031005859375,22.8609619140625,20.366958618164062Z" style="fill: rgb(248, 248, 242); fill-opacity: 1;"/></g></g></g></svg>