<svg width="26" xmlns="http://www.w3.org/2000/svg" height="26" id="screenshot-0be3a07c-5af5-80ca-8007-2f6e53d9caa6" viewBox="0 0 26 26" xmlns:xlink="http://www.w3.org/1999/xlink" fill="none" version="1.1"><g id="shape-0be3a07c-5af5-80ca-8007-2f6e53d9caa6" width="800" height="800" rx="0" ry="0" style="fill: rgb(0, 0, 0);"><g id="shape-0be3a07c-5af5-80ca-8007-2f6e53da4b7a" style="display: none;"><g class="fills" id="fills-0be3a07c-5af5-80ca-8007-2f6e53da4b7a"><rect width="26" height="26.00000000000003" x="0" transform="matrix(1.000000, 0.000000, 0.000000, 1.000000, 0.000000, 0.000000)" style="fill: none;" ry="0" fill="none" rx="0" y="0"/></g></g><g id="shape-0be3a07c-5af5-80ca-8007-2f6e53da828c"><g class="fills" id="fills-0be3a07c-5af5-80ca-8007-2f6e53da828c"><path d="M3.25,18.416671752929688L3.25,13C3.25,7.6152191162109375,7.615234375,3.25,13,3.25C18.384765625,3.25,22.75,7.6152191162109375,22.75,13L22.75,18.416671752929688M8.97607421875,22.75C7.60888671875,22.75,6.5,21.64141845703125,6.5,20.273818969726562L6.5,16.55950927734375C6.5,15.191909790039062,7.60888671875,14.083328247070312,8.97607421875,14.083328247070312C10.001953125,14.083328247070312,10.83349609375,14.914794921875,10.83349609375,15.94049072265625L10.83349609375,20.892852783203125C10.83349609375,21.918533325195312,10.001953125,22.75,8.97607421875,22.75ZM17.02392578125,22.75C18.39111328125,22.75,19.5,21.64141845703125,19.5,20.273818969726562L19.5,16.55950927734375C19.5,15.191909790039062,18.39111328125,14.083328247070312,17.02392578125,14.083328247070312C15.998046875,14.083328247070312,15.16650390625,14.914794921875,15.16650390625,15.94049072265625L15.16650390625,20.892852783203125C15.16650390625,21.918533325195312,15.998046875,22.75,17.02392578125,22.75Z" fill="none" stroke-linecap="round" stroke-linejoin="round" style="fill: none;"/></g><g fill="none" stroke-linecap="round" stroke-linejoin="round" id="strokes-1e1001d1-087f-801c-8007-309fb867e2b3-0be3a07c-5af5-80ca-8007-2f6e53da828c" class="strokes"><g class="stroke-shape"><path d="M3.25,18.416671752929688L3.25,13C3.25,7.6152191162109375,7.615234375,3.25,13,3.25C18.384765625,3.25,22.75,7.6152191162109375,22.75,13L22.75,18.416671752929688M8.97607421875,22.75C7.60888671875,22.75,6.5,21.64141845703125,6.5,20.273818969726562L6.5,16.55950927734375C6.5,15.191909790039062,7.60888671875,14.083328247070312,8.97607421875,14.083328247070312C10.001953125,14.083328247070312,10.83349609375,14.914794921875,10.83349609375,15.94049072265625L10.83349609375,20.892852783203125C10.83349609375,21.918533325195312,10.001953125,22.75,8.97607421875,22.75ZM17.02392578125,22.75C18.39111328125,22.75,19.5,21.64141845703125,19.5,20.273818969726562L19.5,16.55950927734375C19.5,15.191909790039062,18.39111328125,14.083328247070312,17.02392578125,14.083328247070312C15.998046875,14.083328247070312,15.16650390625,14.914794921875,15.16650390625,15.94049072265625L15.16650390625,20.892852783203125C15.16650390625,21.918533325195312,15.998046875,22.75,17.02392578125,22.75Z" style="fill: none; stroke-width: 2; stroke: rgb(248, 248, 242); stroke-opacity: 1;"/></g></g></g></g></svg>