<svg width="26" xmlns="http://www.w3.org/2000/svg" height="26" id="screenshot-fbc63767-0bb8-80fb-8007-2f6c9ac35a8e" viewBox="0 0 26 26" xmlns:xlink="http://www.w3.org/1999/xlink" fill="none" version="1.1"><g id="shape-fbc63767-0bb8-80fb-8007-2f6c9ac35a8e" width="800" height="800" rx="0" ry="0" style="fill: rgb(0, 0, 0);"><g id="shape-fbc63767-0bb8-80fb-8007-2f6c9ac393f9" style="display: none;"><g class="fills" id="fills-fbc63767-0bb8-80fb-8007-2f6c9ac393f9"><rect width="26" height="26" x="0" transform="matrix(1.000000, 0.000000, 0.000000, 1.000000, 0.000000, 0.000000)" style="fill: none;" ry="0" fill="none" rx="0" y="0"/></g></g><g id="shape-fbc63767-0bb8-80fb-8007-2f6c9ac42abe"><g class="fills" id="fills-fbc63767-0bb8-80fb-8007-2f6c9ac42abe"><path d="M22.75,13C22.75,18.384811401367188,18.384765625,22.75,13,22.75M22.75,13C22.75,7.6152191162109375,18.384765625,3.25,13,3.25M22.75,13C22.75,14.794967651367188,18.384765625,16.25,13,16.25C7.615234375,16.25,3.25,14.794967651367188,3.25,13M22.75,13C22.75,11.205032348632812,18.384765625,9.75,13,9.75C7.615234375,9.75,3.25,11.205032348632812,3.25,13M13,22.75C7.615234375,22.75,3.25,18.384811401367188,3.25,13M13,22.75C11.20556640625,22.75,9.75,18.384811401367188,9.75,13C9.75,7.6152191162109375,11.20556640625,3.25,13,3.25M13,22.75C14.79443359375,22.75,16.25,18.384811401367188,16.25,13C16.25,7.6152191162109375,14.79443359375,3.25,13,3.25M3.25,13C3.25,7.6152191162109375,7.615234375,3.25,13,3.25" fill="none" stroke-linecap="round" stroke-linejoin="round" style="fill: none;"/></g><g fill="none" stroke-linecap="round" stroke-linejoin="round" id="strokes-948b9592-c166-805f-8007-30990eb5c5b0-fbc63767-0bb8-80fb-8007-2f6c9ac42abe" class="strokes"><g class="stroke-shape"><path d="M22.75,13C22.75,18.384811401367188,18.384765625,22.75,13,22.75M22.75,13C22.75,7.6152191162109375,18.384765625,3.25,13,3.25M22.75,13C22.75,14.794967651367188,18.384765625,16.25,13,16.25C7.615234375,16.25,3.25,14.794967651367188,3.25,13M22.75,13C22.75,11.205032348632812,18.384765625,9.75,13,9.75C7.615234375,9.75,3.25,11.205032348632812,3.25,13M13,22.75C7.615234375,22.75,3.25,18.384811401367188,3.25,13M13,22.75C11.20556640625,22.75,9.75,18.384811401367188,9.75,13C9.75,7.6152191162109375,11.20556640625,3.25,13,3.25M13,22.75C14.79443359375,22.75,16.25,18.384811401367188,16.25,13C16.25,7.6152191162109375,14.79443359375,3.25,13,3.25M3.25,13C3.25,7.6152191162109375,7.615234375,3.25,13,3.25" style="fill: none; stroke-width: 2; stroke: rgb(248, 248, 242); stroke-opacity: 1;"/></g></g></g></g></svg>