<svg width="26" xmlns="http://www.w3.org/2000/svg" height="26" id="screenshot-0be3a07c-5af5-80ca-8007-2f6dca98efb4" viewBox="0 0 26 26" xmlns:xlink="http://www.w3.org/1999/xlink" fill="none" version="1.1"><g id="shape-0be3a07c-5af5-80ca-8007-2f6dca98efb4" width="800" height="800" rx="0" ry="0" style="fill: rgb(0, 0, 0);"><g id="shape-0be3a07c-5af5-80ca-8007-2f6dca99296e" style="display: none;"><g class="fills" id="fills-0be3a07c-5af5-80ca-8007-2f6dca99296e"><rect width="26" height="26.00000000000003" x="0" transform="matrix(1.000000, 0.000000, 0.000000, 1.000000, 0.000000, 0.000000)" style="fill: none;" ry="0" fill="none" rx="0" y="0"/></g></g><g id="shape-0be3a07c-5af5-80ca-8007-2f6dca99a032"><g class="fills" id="fills-0be3a07c-5af5-80ca-8007-2f6dca99a032"><path d="M1.4443359375,8.7471923828125C0.998046875,9.146209716796875,0.96044921875,9.831085205078125,1.359375,10.276901245117188C1.75830078125,10.722732543945312,2.443359375,10.760665893554688,2.88916015625,10.361663818359375L1.4443359375,8.7471923828125ZM23.11083984375,10.361663818359375C23.556640625,10.760665893554688,24.24169921875,10.722732543945312,24.640625,10.276901245117188C25.03955078125,9.831085205078125,25.001953125,9.146209716796875,24.5556640625,8.7471923828125L23.11083984375,10.361663818359375ZM13,20.583328247070312C12.40185546875,20.583328247070312,11.91650390625,21.068328857421875,11.91650390625,21.666671752929688C11.91650390625,22.264999389648438,12.40185546875,22.75,13,22.75L13,20.583328247070312ZM13.0107421875,22.75C13.609375,22.75,14.09375,22.264999389648438,14.09375,21.666671752929688C14.09375,21.068328857421875,13.609375,20.583328247070312,13.0107421875,20.583328247070312L13.0107421875,22.75ZM15.91455078125,18.460006713867188C16.357421875,18.862579345703125,17.04248046875,18.830169677734375,17.44482421875,18.38763427734375C17.84765625,17.944992065429688,17.8154296875,17.2598876953125,17.37255859375,16.857208251953125L15.91455078125,18.460006713867188ZM19.55810546875,14.451995849609375C20.0009765625,14.85455322265625,20.68603515625,14.822174072265625,21.08837890625,14.3795166015625C21.4912109375,13.936981201171875,21.458984375,13.25177001953125,21.0166015625,12.849197387695312L19.55810546875,14.451995849609375ZM8.62744140625,16.857208251953125C8.1845703125,17.2598876953125,8.15234375,17.944992065429688,8.55517578125,18.38763427734375C8.95751953125,18.830169677734375,9.642578125,18.862579345703125,10.08544921875,18.460006713867188L8.62744140625,16.857208251953125ZM4.9833984375,12.849197387695312C4.541015625,13.25177001953125,4.50830078125,13.936981201171875,4.91162109375,14.3795166015625C5.31396484375,14.822174072265625,5.9990234375,14.85455322265625,6.44189453125,14.451995849609375L4.9833984375,12.849197387695312ZM2.88916015625,10.361663818359375C5.5732421875,7.95941162109375,9.11474609375,6.5,13,6.5L13,4.3333282470703125C8.5615234375,4.3333282470703125,4.509765625,6.0031585693359375,1.4443359375,8.7471923828125L2.88916015625,10.361663818359375ZM13,6.5C16.88525390625,6.5,20.4267578125,7.95941162109375,23.11083984375,10.361663818359375L24.5556640625,8.7471923828125C21.490234375,6.0031585693359375,17.4384765625,4.3333282470703125,13,4.3333282470703125L13,6.5ZM13,22.75L13.0107421875,22.75L13.0107421875,20.583328247070312L13,20.583328247070312L13,22.75ZM13,17.333328247070312C14.123046875,17.333328247070312,15.14453125,17.759185791015625,15.91455078125,18.460006713867188L17.37255859375,16.857208251953125C16.21875,15.807785034179688,14.68310546875,15.166671752929688,13,15.166671752929688L13,17.333328247070312ZM13,11.916671752929688C15.5263671875,11.916671752929688,17.82568359375,12.875961303710938,19.55810546875,14.451995849609375L21.0166015625,12.849197387695312C18.90087890625,10.924545288085938,16.0859375,9.75,13,9.75L13,11.916671752929688ZM10.08544921875,18.460006713867188C10.85546875,17.759185791015625,11.876953125,17.333328247070312,13,17.333328247070312L13,15.166671752929688C11.31689453125,15.166671752929688,9.78125,15.807785034179688,8.62744140625,16.857208251953125L10.08544921875,18.460006713867188ZM6.44189453125,14.451995849609375C8.17431640625,12.875961303710938,10.4736328125,11.916671752929688,13,11.916671752929688L13,9.75C9.9140625,9.75,7.09912109375,10.924545288085938,4.9833984375,12.849197387695312L6.44189453125,14.451995849609375Z" style="fill: rgb(248, 248, 242); fill-opacity: 1;"/></g></g></g></svg>