<svg width="26" xmlns="http://www.w3.org/2000/svg" height="26" id="screenshot-31cb41d8-f1e7-80f9-8007-305dca20c8cf" viewBox="0 0 26 26" xmlns:xlink="http://www.w3.org/1999/xlink" fill="none" version="1.1"><g id="shape-31cb41d8-f1e7-80f9-8007-305dca20c8cf" width="800" height="800" rx="0" ry="0" style="fill: rgb(0, 0, 0);"><g id="shape-31cb41d8-f1e7-80f9-8007-305dca21095a" style="display: none;"><g class="fills" id="fills-31cb41d8-f1e7-80f9-8007-305dca21095a"><rect width="26" height="26" x="0" transform="matrix(1.000000, 0.000000, 0.000000, 1.000000, 0.000000, 0.000000)" style="fill: rgb(248, 248, 242); fill-opacity: 1;" ry="0" fill="none" rx="0" y="0"/></g></g><g id="shape-31cb41d8-f1e7-80f9-8007-305dca2148a3"><g class="fills" id="fills-31cb41d8-f1e7-80f9-8007-305dca2148a3"><path d="M19.5,12.9998779296875L18.6318359375,12.9998779296875C17.7333984375,12.9998779296875,17.28369140625,12.9998779296875,16.9111328125,13.2108154296875C16.5390625,13.421737670898438,16.30712890625,13.807083129882812,15.8447265625,14.577774047851562L15.8115234375,14.633560180664062C15.380859375,15.351470947265625,15.1650390625,15.710494995117188,14.85205078125,15.704544067382812C14.53857421875,15.698699951171875,14.3369140625,15.331878662109375,13.93310546875,14.598236083984375L12.10546875,11.274795532226562C11.72900390625,10.590728759765625,11.541015625,10.248703002929688,11.24072265625,10.23248291015625C10.9404296875,10.21624755859375,10.71630859375,10.536056518554688,10.2685546875,11.175567626953125L9.9619140625,11.613662719726562C9.486328125,12.29290771484375,9.24853515625,12.632537841796875,8.896484375,12.816162109375C8.54345703125,12.9998779296875,8.12890625,12.9998779296875,7.29931640625,12.9998779296875L6.5,12.9998779296875" fill="none" stroke-linecap="round" style="fill: rgb(248, 248, 242); fill-opacity: 1;"/></g><g fill="none" stroke-linecap="round" id="strokes-4f30083f-0eb4-808b-8007-309ff5ace43e-31cb41d8-f1e7-80f9-8007-305dca2148a3" class="strokes"><g class="stroke-shape"><path d="M19.5,12.9998779296875L18.6318359375,12.9998779296875C17.7333984375,12.9998779296875,17.28369140625,12.9998779296875,16.9111328125,13.2108154296875C16.5390625,13.421737670898438,16.30712890625,13.807083129882812,15.8447265625,14.577774047851562L15.8115234375,14.633560180664062C15.380859375,15.351470947265625,15.1650390625,15.710494995117188,14.85205078125,15.704544067382812C14.53857421875,15.698699951171875,14.3369140625,15.331878662109375,13.93310546875,14.598236083984375L12.10546875,11.274795532226562C11.72900390625,10.590728759765625,11.541015625,10.248703002929688,11.24072265625,10.23248291015625C10.9404296875,10.21624755859375,10.71630859375,10.536056518554688,10.2685546875,11.175567626953125L9.9619140625,11.613662719726562C9.486328125,12.29290771484375,9.24853515625,12.632537841796875,8.896484375,12.816162109375C8.54345703125,12.9998779296875,8.12890625,12.9998779296875,7.29931640625,12.9998779296875L6.5,12.9998779296875" style="fill: none; stroke-width: 1.5; stroke: rgb(248, 248, 242); stroke-opacity: 1;"/></g></g></g><g id="shape-31cb41d8-f1e7-80f9-8007-305dca218a1c"><g class="fills" id="fills-31cb41d8-f1e7-80f9-8007-305dca218a1c"><path d="M9.708984375,20.4866943359375L10.2119140625,19.848724365234375L9.708984375,20.4866943359375ZM13,5.958984375L12.41455078125,6.522430419921875C12.56787109375,6.6815643310546875,12.77880859375,6.771484375,13,6.771484375C13.22119140625,6.771484375,13.43212890625,6.6815643310546875,13.58544921875,6.522430419921875L13,5.958984375ZM16.291015625,20.48681640625L16.79443359375,21.124908447265625L16.79443359375,21.124908447265625L16.291015625,20.48681640625ZM13,22.19305419921875L13,21.38055419921875L13,22.19305419921875ZM2.8779296875,14.51275634765625C3.115234375,14.893661499023438,3.6162109375,15.010238647460938,3.99755859375,14.773101806640625C4.37841796875,14.53594970703125,4.49462890625,14.034805297851562,4.2578125,13.653900146484375L2.8779296875,14.51275634765625ZM7.07373046875,17.08612060546875C6.755859375,16.769241333007812,6.24169921875,16.769775390625,5.9248046875,17.0875244140625C5.607421875,17.4051513671875,5.60888671875,17.919631958007812,5.92626953125,18.236495971679688L7.07373046875,17.08612060546875ZM2.97900390625,9.89849853515625C2.97900390625,6.862030029296875,4.34130859375,4.9779815673828125,6.0439453125,4.3302154541015625C7.75146484375,3.6806640625,10.13037109375,4.149383544921875,12.41455078125,6.522430419921875L13.58544921875,5.395538330078125C10.99462890625,2.703826904296875,7.95703125,1.86407470703125,5.46630859375,2.8113861083984375C2.97119140625,3.7604217529296875,1.35400390625,6.378509521484375,1.35400390625,9.89849853515625L2.97900390625,9.89849853515625ZM16.79443359375,21.124908447265625C18.4111328125,19.850341796875,20.34912109375,18.1416015625,21.8896484375,16.232452392578125C23.4140625,14.344635009765625,24.64599609375,12.142974853515625,24.64599609375,9.8984375L23.02099609375,9.8984375C23.02099609375,11.57867431640625,22.076171875,13.414810180664062,20.62548828125,15.211837768554688C19.1923828125,16.9874267578125,17.359375,18.610366821289062,15.78857421875,19.848724365234375L16.79443359375,21.124908447265625ZM24.64599609375,9.8984375C24.64599609375,6.37847900390625,23.02880859375,3.760406494140625,20.53369140625,2.811370849609375C18.04296875,1.8640899658203125,15.00537109375,2.703826904296875,12.41455078125,5.395538330078125L13.58544921875,6.522430419921875C15.86962890625,4.149383544921875,18.24853515625,3.6806640625,19.9560546875,4.3302154541015625C21.65869140625,4.9779815673828125,23.02099609375,6.862030029296875,23.02099609375,9.8984375L24.64599609375,9.8984375ZM9.20556640625,21.124786376953125C10.5859375,22.213088989257812,11.53759765625,23.00555419921875,13,23.00555419921875L13,21.38055419921875C12.20849609375,21.38055419921875,11.71728515625,21.0355224609375,10.2119140625,19.848724365234375L9.20556640625,21.124786376953125ZM15.78857421875,19.848724365234375C14.28271484375,21.0355224609375,13.79150390625,21.38055419921875,13,21.38055419921875L13,23.00555419921875C14.46240234375,23.00555419921875,15.4140625,22.213088989257812,16.79443359375,21.124908447265625L15.78857421875,19.848724365234375ZM4.2578125,13.653900146484375C3.44921875,12.355850219726562,2.97900390625,11.08380126953125,2.97900390625,9.89849853515625L1.35400390625,9.89849853515625C1.35400390625,11.501754760742188,1.98291015625,13.075302124023438,2.8779296875,14.51275634765625L4.2578125,13.653900146484375ZM10.2119140625,19.848724365234375C9.21826171875,19.065582275390625,8.11474609375,18.124923706054688,7.07373046875,17.08612060546875L5.92626953125,18.236495971679688C7.0234375,19.33154296875,8.17724609375,20.314117431640625,9.20556640625,21.124786376953125L10.2119140625,19.848724365234375Z" style="fill: rgb(248, 248, 242); fill-opacity: 1;"/></g></g></g></svg>